# xmcd
#
# Track frame offsets: 
#        150
#        33535
#        59363
#        80759
#        102186
#        122052
#        138892
#        160377
#        193121
#        217262
#        237444
#        257149
#        276879
#        303796
#
# Disc length: 4417 seconds
#
# Revision: 2
# Processed by: cddbd v1.5.2PL0 Copyright (c) Steve Scherf et al.
# Submitted via: ExactAudioCopy v1.0b3
#
DISCID=d0113f0e
DTITLE=Various Artist - Blues Paradise  Vol..6
DYEAR=2001
DGENRE=Blues
TTITLE0=Alvin Lee - The Blues Best
TTITLE1=Neal Black - I Don't Get The Blues
TTITLE2=John Lee Hooker - Chill Out
TTITLE3=Showy White - The Time Has Come
TTITLE4=Chicken Shack - The Way It Is
TTITLE5=Colin James - Standin' On The Edge
TTITLE6=Slo Leak - Satisfly Me
TTITLE7=Jerry Miller Band - Now Low I See
TTITLE8=Eric Capton - My Father's Eyes
TTITLE9=Rick Derringer - Tough On Me Tough On You
TTITLE10=Tosho - The Blue
TTITLE11=The Mick Clarke Band - Cheap
TTITLE12=Bugs Henderson and The Shuffle King - Blue Casino
TTITLE13=Mike Dugan and The Blues Mission - Blue Eternity
EXTD=YEAR: 1999
EXTT0=
EXTT1=
EXTT2=
EXTT3=
EXTT4=
EXTT5=
EXTT6=
EXTT7=
EXTT8=
EXTT9=
EXTT10=
EXTT11=
EXTT12=
EXTT13=
PLAYORDER=
